<svg width="259" height="259" viewBox="0 0 259 259" fill="none" xmlns="http://www.w3.org/2000/svg">
<circle cx="129.5" cy="129.5" r="129.5" fill="#836DDE"/>
<path fill-rule="evenodd" clip-rule="evenodd" d="M86.4182 170.5V207.5C89.0848 209.5 95.2182 212.9 98.4182 210.5L100.918 189H109.418L111.418 206C112.085 207.5 114.218 210.5 117.418 210.5H124.418L125.918 189H129.918V171.5L123.418 175C119.752 175 112.918 173.3 114.918 166.5C116.918 159.7 121.418 146.667 123.418 141C123.918 139.167 125.918 135.5 129.918 135.5V39C110.085 39 66.3182 49.5 49.9182 91.5C33.5182 133.5 50.0848 153.333 60.4182 158C63.5848 159.667 71.418 162.8 77.418 162C83.418 161.2 85.9181 167.333 86.4182 170.5ZM65.418 118.5C69.4178 99.3 86.4179 99.8333 94.418 102.5L113.918 120.5C119.418 134.5 109.085 137.833 104.418 139.5H82.918C75.418 140.5 61.4181 137.7 65.418 118.5Z" fill="black"/>
<path fill-rule="evenodd" clip-rule="evenodd" d="M172.918 170.5V207.5C170.251 209.5 164.118 212.9 160.918 210.5L158.418 189H149.918L147.918 206C147.251 207.5 145.118 210.5 141.918 210.5H134.918L133.418 189H129.418V171.5L135.918 175C139.584 175 146.418 173.3 144.418 166.5C142.418 159.7 137.918 146.667 135.918 141C135.418 139.167 133.418 135.5 129.418 135.5V39C149.251 39 193.018 49.5 209.418 91.5C225.818 133.5 209.251 153.333 198.918 158C195.751 159.667 187.918 162.8 181.918 162C175.918 161.2 173.418 167.333 172.918 170.5ZM193.918 118.5C189.918 99.3 172.918 99.8333 164.918 102.5L145.418 120.5C139.918 134.5 150.251 137.833 154.918 139.5H176.418C183.918 140.5 197.918 137.7 193.918 118.5Z" fill="black"/>
</svg>
