<svg width="259" height="259" viewBox="0 0 259 259" fill="none" xmlns="http://www.w3.org/2000/svg">
<circle cx="129.5" cy="129.5" r="129.5" fill="#82CFFF"/>
<path d="M129.5 216.5V33C134.667 43.5 147.5 67.1 157.5 77.5C167.5 87.9 180.667 105.5 186 113C221 181 160.5 216.5 129.5 216.5Z" fill="black"/>
<path d="M130.075 216.5V33C124.908 43.5 112.075 67.1 102.075 77.5C92.0747 87.9 78.908 105.5 73.5747 113C38.5747 181 99.0747 216.5 130.075 216.5Z" fill="black"/>
<path d="M153.152 140.723C153.756 133.395 153.724 118.112 153.607 109.157C153.589 107.74 154.966 106.85 156.108 107.69C161.564 111.703 169.6 121.638 173.565 126.981C173.679 127.135 173.77 127.307 173.834 127.488C180.245 145.455 171.573 151.127 166.267 151.752C166.163 151.764 166.064 151.766 165.96 151.759C161.313 151.454 152.482 148.851 153.152 140.723Z" fill="#82CFFF"/>
</svg>
