<svg width="259" height="259" viewBox="0 0 259 259" fill="none" xmlns="http://www.w3.org/2000/svg">
<circle cx="129.5" cy="129.5" r="129.5" fill="#81D74F"/>
<path d="M77.3576 206.5H130.858L131.357 44C116.557 44 109.191 52.3334 107.358 56.5001C105.024 53.1667 96.8574 48.3001 82.8574 55.5001C68.8574 62.7001 67.6908 75.1667 68.8574 80.5001C65.6908 81.3334 58.1574 84.6001 53.3574 91.0001C48.5574 97.4001 52.0242 108.333 54.3576 113C37.9576 121.4 42.8576 138.167 47.3576 145.5C67.8576 162.5 79.8576 148 84.8576 141C102.858 139.8 110.691 154.833 112.358 162.5C112.524 163.5 112.858 167.8 112.858 177C112.858 186.2 109.191 188.833 107.358 189C106.691 189 102.758 189.1 92.3576 189.5C81.9576 189.9 78.0243 201 77.3576 206.5Z" fill="black"/>
<path d="M182.857 206.5H129.357L128.857 44C143.657 44 151.024 52.3334 152.857 56.5001C155.191 53.1667 163.357 48.3001 177.357 55.5001C191.357 62.7001 192.524 75.1667 191.357 80.5001C194.524 81.3334 202.057 84.6001 206.857 91.0001C211.657 97.4001 208.191 108.333 205.857 113C222.257 121.4 217.357 138.167 212.857 145.5C192.357 162.5 180.357 148 175.357 141C157.357 139.8 149.524 154.833 147.857 162.5C147.691 163.5 147.357 167.8 147.357 177C147.357 186.2 151.024 188.833 152.857 189C153.524 189 157.457 189.1 167.857 189.5C178.257 189.9 182.191 201 182.857 206.5Z" fill="black"/>
</svg>
