<svg width="259" height="259" viewBox="0 0 259 259" fill="none" xmlns="http://www.w3.org/2000/svg">
<circle cx="129.5" cy="129.5" r="129.5" fill="#F05C45"/>
<path d="M83.8471 108.195C51.0471 118.195 46.5138 147.695 48.3471 161.195C49.0138 163.195 50.7472 169.195 52.3472 177.195C53.9472 185.195 62.6805 193.529 66.8472 196.695C74.5138 202.029 95.5472 212.695 118.347 212.695C141.147 212.695 154.847 202.029 158.847 196.695C157.181 197.195 151.147 198.295 140.347 198.695C129.547 199.095 130.847 190.529 132.847 186.195C134.181 183.695 139.247 179.295 148.847 181.695C158.447 184.095 173.514 183.029 179.847 182.195C200.647 174.995 206.18 160.529 206.347 154.195L195.847 163.195C192.847 164.862 185.747 166.395 181.347 159.195C176.947 151.995 187.847 145.195 193.847 142.695C197.347 140.862 205.447 133.995 209.847 121.195C214.247 108.395 208.347 94.5287 204.847 89.1954L205.347 98.6954C205.68 102.362 204.647 110.195 197.847 112.195C191.047 114.195 188.68 108.362 188.347 105.195C189.947 93.9953 188.014 80.1954 186.847 74.6954C186.18 68.3621 179.647 52.6955 158.847 40.6955C138.047 28.6955 117.514 33.3621 109.847 37.1954C115.514 36.0288 128.247 35.3954 133.847 42.1954C139.447 48.9954 133.514 53.3621 129.847 54.6954L117.847 54.1954C127.847 62.1954 139.347 60.5287 143.847 58.6954C146.514 57.6954 154.047 57.6954 162.847 65.6954C171.647 73.6954 168.514 83.0287 165.847 86.6954C164.681 87.5287 161.147 88.9954 156.347 88.1954C151.547 87.3954 149.681 78.8621 149.347 74.6954C146.147 78.6954 146.347 87.3621 146.847 91.1954L152.347 108.195C156.347 128.195 143.014 130.529 135.847 129.195C132.847 127.362 128.047 121.495 132.847 112.695C137.647 103.895 134.181 93.3621 131.847 89.1954C129.181 94.6954 121.447 105.595 111.847 105.195C102.247 104.795 89.1805 107.029 83.8471 108.195Z" fill="black"/>
<path d="M109.347 68.6954C103.747 73.8954 93.6805 71.8621 89.3472 70.1954C97.6805 77.8621 115.247 90.3954 118.847 79.1954C122.447 67.9954 114.014 67.5288 109.347 68.6954Z" fill="black"/>
<path d="M90.8472 43.1954C72.0472 41.9954 64.6805 55.3621 63.3472 62.1954C65.5138 61.0288 70.5472 58.3954 73.3472 57.1954C76.1472 55.9955 85.1805 56.6954 89.3472 57.1954C100.547 53.1954 95.0138 46.1954 90.8472 43.1954Z" fill="black"/>
</svg>
