<svg width="259" height="259" viewBox="0 0 259 259" fill="none" xmlns="http://www.w3.org/2000/svg">
<circle cx="129.5" cy="129.5" r="129.5" fill="#FFE98F"/>
<path d="M115.5 66.5C117.75 75.5005 109.921 81.3952 104.951 83.6072C104.361 83.8698 103.688 83.7847 103.175 83.3922C100.904 81.6544 95.2467 77.062 91.9769 74.3899C91.6647 74.1348 91.285 73.9816 90.8833 73.9471L74.7043 72.5604C74.2486 72.5213 73.82 72.3272 73.4901 72.0105L64.4895 63.3699C63.2819 62.2106 61.2991 62.9593 61.2251 64.6317C60.9548 70.7411 61.0996 79.6156 63 85C65.3101 91.5452 71.5112 93.9831 74.648 94.4538C74.8813 94.4889 75.1129 94.5554 75.3222 94.6643C83.7883 99.0667 83.3168 105.702 82 108.5L79.9386 115.097C79.6777 115.932 78.9044 116.5 78.0296 116.5H68.198C68.0663 116.5 67.9361 116.486 67.8057 116.467C66.0297 116.212 62.082 116.877 59 121.5C55.9057 126.141 50.0688 128.663 47.2755 129.428C47.0929 129.478 46.904 129.496 46.7149 129.489L38.6091 129.177C36.8602 129.11 35.8947 131.143 37.0799 132.431C39.9059 135.502 43.9143 139.687 48 143.5C53.9046 149.011 60.2935 146.903 62.8778 145.088C62.9582 145.031 63.0298 144.968 63.1033 144.903L63.1111 144.896C64.2481 143.888 67.8177 142.341 74 143.5C79.8006 144.588 83.3011 150.686 84.6505 154.425C84.8887 155.085 84.7072 155.814 84.2284 156.327L78.2067 162.778C78.0697 162.925 77.9092 163.047 77.7474 163.166C76.5408 164.053 74.6273 166.782 75 172C75.3809 177.333 73.9781 182.787 73.1238 185.166C73.0437 185.389 72.9199 185.591 72.7633 185.769L65.4849 194.04C64.2688 195.422 65.413 197.63 67.248 197.484C70.4647 197.228 74.5223 197 78.5 197C84.9792 197 88.3414 195.184 89.3651 194.148C89.4595 194.052 89.5528 193.96 89.6516 193.869C90.6059 192.99 92.9754 189.927 96 183.5C99.2 176.7 106.667 177 110 178L115.853 180.508C116.555 180.809 117.024 181.482 117.061 182.245C117.237 185.845 117.5 191.579 117.5 193C117.5 195 120.5 198 124.5 201.5C127.596 204.209 129.381 209.007 129.947 211.279C129.983 211.426 130 211.576 130 211.728V220.54C130 222.403 132.354 223.281 133.6 221.895C135.914 219.32 138.916 216.084 142 213C146.362 208.638 147.276 203.033 147.162 199.668C147.129 198.698 146.274 197.774 145.784 196.936C145.03 195.643 144.249 192.988 144 188C143.628 180.55 151.609 176.28 156.477 174.786C157.113 174.591 157.796 174.767 158.291 175.212L162.384 178.896C162.461 178.965 162.534 179.042 162.6 179.122C169.102 186.98 179.028 185.003 184.5 185.5C187.368 185.761 191.101 189.01 194.09 192.257C195.402 193.682 198 192.787 198 190.85V172C198 170.5 191.5 164.5 184.5 163.5C179.086 162.727 177.909 154.725 177.988 150.429C177.993 150.146 178.066 149.869 178.192 149.615L181.296 143.408C181.709 142.582 182.631 142.151 183.541 142.31C188.232 143.132 195.856 143.431 198 139.5C200.317 135.251 207.172 131.282 210.642 129.664C210.878 129.554 211.134 129.496 211.394 129.487L220.708 129.176C222.55 129.115 223.364 126.772 221.99 125.543C219.044 122.907 215.581 119.601 213.5 117C210.447 113.183 206.24 111.795 204.269 111.53C204.09 111.506 203.912 111.516 203.734 111.549C201.772 111.922 197.672 112.855 195 114C191.5 115.5 189 115 184.5 114.5C181.247 114.139 177.749 107.763 175.998 103.708C175.683 102.979 175.863 102.137 176.425 101.575L184.166 93.8339C184.386 93.6143 184.553 93.3488 184.636 93.0496C185.145 91.2184 185.866 86.9863 185.5 81.5C185.1 75.5 187.667 71.6667 189 70.5L194.802 64.3755C196.01 63.1008 195.106 61 193.35 61H179C175.333 60.8333 167.5 62.8 165.5 72C163.528 81.0707 155.076 81.8138 150.685 81.0342C150.56 81.012 150.441 80.9762 150.323 80.929L144.257 78.5029C143.498 78.1992 143 77.4637 143 76.6459V64.554C143 64.1915 142.904 63.8359 142.707 63.5314C141.522 61.696 138.928 58.3303 136 56.5C132.934 54.5834 130.847 50.0651 130.091 47.7847C130.028 47.5955 130 47.3986 130 47.1993V37.1922C130 35.5098 128.068 34.6003 126.81 35.717C122.977 39.1186 117.921 44.0651 115.5 48C111.5 54.5 112.5 54.5 115.5 66.5Z" fill="black"/>
</svg>
