<svg width="56" height="34" viewBox="0 0 56 34" fill="none" xmlns="http://www.w3.org/2000/svg">
<mask id="mask0_7877_221" style="mask-type:luminance" maskUnits="userSpaceOnUse" x="0" y="0" width="56" height="34">
<path d="M54.0639 5.94284L44.4315 0.331974C42.8155 -0.608689 40.7941 0.563783 40.7941 2.44242V17.0849C37.1362 15.0478 33.8741 13.2551 32.5641 12.5964C31.1278 11.875 29.5652 11.5152 28.0027 11.5152C26.4401 11.5152 24.8775 11.8759 23.4412 12.5964C22.1304 13.2542 18.8665 15.0487 15.2077 17.0867V2.44242C15.2077 0.563783 13.1863 -0.609584 11.5703 0.331974L1.93698 5.94284C0.738153 6.64095 0 7.92977 0 9.32331V22.5418C0 23.5031 0.223224 24.4428 0.67412 25.2564C1.11523 26.0494 1.75022 26.7341 2.53818 27.2353L7.50337 30.392L11.3925 32.8524C15.8409 35.4184 19.0319 32.6555 19.1973 32.5078L26.6464 27.357C27.0555 27.0742 27.5278 26.9319 28.0018 26.9283C28.4749 26.931 28.948 27.0742 29.3571 27.357L36.7982 32.5025C36.7982 32.5025 36.7965 32.5025 36.7956 32.5016C36.7956 32.5016 40.0381 35.4882 44.6075 32.8524L48.4966 30.392L53.4618 27.2353C54.2498 26.7341 54.8848 26.0494 55.3259 25.2564C55.7768 24.4437 56 23.5031 56 22.5418V9.32331C56 7.92977 55.2619 6.64095 54.063 5.94284H54.0639Z" fill="white"/>
</mask>
<g mask="url(#mask0_7877_221)">
<path d="M54.0639 5.94284L44.4315 0.331974C42.8155 -0.608689 40.7941 0.563783 40.7941 2.44242V17.0849C37.1362 15.0478 33.8741 13.2551 32.5641 12.5964C31.1278 11.875 29.5652 11.5152 28.0027 11.5152C26.4401 11.5152 24.8775 11.8759 23.4412 12.5964C22.1304 13.2542 18.8665 15.0487 15.2077 17.0867V2.44242C15.2077 0.563783 13.1863 -0.609584 11.5703 0.331974L1.93698 5.94284C0.738153 6.64095 0 7.92977 0 9.32331V22.5418C0 23.5031 0.223224 24.4428 0.67412 25.2564C1.11523 26.0494 1.75022 26.7341 2.53818 27.2353L7.50337 30.392L11.3925 32.8524C15.8409 35.4184 19.0319 32.6555 19.1973 32.5078L26.6464 27.357C27.0555 27.0742 27.5278 26.9319 28.0018 26.9283C28.4749 26.931 28.948 27.0742 29.3571 27.357L36.7982 32.5025C36.7982 32.5025 36.7965 32.5025 36.7956 32.5016C36.7956 32.5016 40.0381 35.4882 44.6075 32.8524L48.4966 30.392L53.4618 27.2353C54.2498 26.7341 54.8848 26.0494 55.3259 25.2564C55.7768 24.4437 56 23.5031 56 22.5418V9.32331C56 7.92977 55.2619 6.64095 54.063 5.94284H54.0639Z" fill="url(#paint0_linear_7877_221)"/>
<path d="M28.0034 19.2202C26.5938 19.2229 25.1851 19.5845 23.8893 20.3059C22.3365 21.1705 18.6724 23.4062 15.2031 25.556V33.9164C16.4989 33.886 17.7875 33.4841 18.9028 32.7117L26.6481 27.3559C27.0571 27.0731 27.5303 26.9308 28.0034 26.9272H28.0016C28.4756 26.9299 28.9488 27.0731 29.357 27.3559L37.1022 32.7117C38.2184 33.4832 39.5061 33.886 40.8028 33.9164V25.556C37.3326 23.4053 33.6685 21.1705 32.1157 20.3059C30.8199 19.5845 29.4112 19.2229 28.0016 19.2202" fill="url(#paint1_linear_7877_221)"/>
<path d="M27.9998 19.2701C26.5911 19.2727 25.1824 19.6325 23.8866 20.3512C22.3347 21.2122 18.6716 23.448 15.2031 25.5907V17.0871C18.8628 15.0492 22.1266 13.2546 23.4375 12.5968C24.8738 11.8754 26.4364 11.5156 27.999 11.5156C29.5615 11.5156 31.1241 11.8763 32.5604 12.5968C33.8713 13.2546 37.1352 15.0492 40.7948 17.0871V25.5907C37.3264 23.4489 33.6632 21.2131 32.1113 20.3512C30.8164 19.6325 29.4077 19.2718 27.9981 19.2701" fill="url(#paint2_linear_7877_221)"/>
<path d="M55.3296 25.2565C55.7805 24.4438 56.0037 23.5032 56.0037 22.5419V9.32343C56.0037 7.92989 55.2656 6.64106 54.0667 5.94295L44.4343 0.332089C42.8183 -0.608574 40.7969 0.563898 40.7969 2.44254V17.0877L55.3296 25.2556V25.2565Z" fill="url(#paint3_linear_7877_221)"/>
<path d="M40.7978 25.5897C44.7749 28.0456 48.5003 30.3923 48.5003 30.3923L53.4655 27.2356C54.2535 26.7344 54.8885 26.0497 55.3296 25.2567C55.3296 25.2567 47.4145 20.7727 40.7969 17.0879V25.5897H40.7978Z" fill="url(#paint4_linear_7877_221)"/>
<path d="M36.7969 32.5011C40.2128 33.9805 40.7954 32.3409 40.7954 30.37V25.5889C44.7725 28.0448 48.4979 30.3915 48.4979 30.3915L44.6088 32.8519C40.0394 35.4878 36.7969 32.5011 36.7969 32.5011Z" fill="url(#paint5_linear_7877_221)"/>
<path d="M0.67412 25.2565C0.223224 24.4429 0 23.5032 0 22.5419V9.32343C0 7.92989 0.738153 6.64106 1.93698 5.94295L11.5694 0.332089C13.1854 -0.608574 15.2068 0.563898 15.2068 2.44254V17.0877L0.67412 25.2565Z" fill="url(#paint6_linear_7877_221)"/>
<path d="M15.2076 25.5897C11.2305 28.0456 7.50503 30.3923 7.50503 30.3923L2.53984 27.2356C1.75188 26.7344 1.11689 26.0497 0.675781 25.2567C0.675781 25.2567 8.59091 20.7727 15.2085 17.0879V25.5897H15.2076Z" fill="url(#paint7_linear_7877_221)"/>
<path d="M19.205 32.5011C15.789 33.9805 15.2065 32.3409 15.2065 30.37V25.5889C11.2294 28.0448 7.50391 30.3915 7.50391 30.3915L11.393 32.8519C15.9624 35.4878 19.205 32.5011 19.205 32.5011Z" fill="url(#paint8_linear_7877_221)"/>
</g>
<defs>
<linearGradient id="paint0_linear_7877_221" x1="28" y1="10.954" x2="28" y2="50.2533" gradientUnits="userSpaceOnUse">
<stop stop-color="#8AB11B"/>
<stop offset="1" stop-color="#6EAF02"/>
</linearGradient>
<linearGradient id="paint1_linear_7877_221" x1="28.0034" y1="19.2202" x2="28.0034" y2="33.9173" gradientUnits="userSpaceOnUse">
<stop stop-color="#238D37"/>
<stop offset="0.94" stop-color="#35537F"/>
</linearGradient>
<linearGradient id="paint2_linear_7877_221" x1="26.303" y1="11.657" x2="29.1428" y2="27.6582" gradientUnits="userSpaceOnUse">
<stop stop-color="#67D84D"/>
<stop offset="1" stop-color="#348522"/>
</linearGradient>
<linearGradient id="paint3_linear_7877_221" x1="48.3998" y1="3.75351e-05" x2="48.3998" y2="33.5139" gradientUnits="userSpaceOnUse">
<stop stop-color="#E4D00A"/>
<stop offset="0.56" stop-color="#C4D132"/>
</linearGradient>
<linearGradient id="paint4_linear_7877_221" x1="48.0637" y1="7.66336" x2="48.0637" y2="37.5748" gradientUnits="userSpaceOnUse">
<stop offset="0.22" stop-color="#75BE2C"/>
<stop offset="0.66" stop-color="#9DC03B"/>
</linearGradient>
<linearGradient id="paint5_linear_7877_221" x1="42.647" y1="28.2838" x2="42.647" y2="37.9526" gradientUnits="userSpaceOnUse">
<stop stop-color="#8AB11B"/>
<stop offset="1" stop-color="#6EAF02"/>
</linearGradient>
<linearGradient id="paint6_linear_7877_221" x1="7.60297" y1="3.75351e-05" x2="7.60297" y2="33.5139" gradientUnits="userSpaceOnUse">
<stop offset="0.15" stop-color="#E4D00A"/>
<stop offset="0.52" stop-color="#C4D132"/>
</linearGradient>
<linearGradient id="paint7_linear_7877_221" x1="7.94081" y1="7.66336" x2="7.94081" y2="37.5748" gradientUnits="userSpaceOnUse">
<stop offset="0.22" stop-color="#75BE2C"/>
<stop offset="0.66" stop-color="#9DC03B"/>
</linearGradient>
<linearGradient id="paint8_linear_7877_221" x1="13.354" y1="28.2838" x2="13.354" y2="37.9526" gradientUnits="userSpaceOnUse">
<stop stop-color="#8AB11B"/>
<stop offset="1" stop-color="#6EAF02"/>
</linearGradient>
</defs>
</svg>
